# xmcd CD database file
#
# Track frame offsets:
#	150
#	14367
#	26750
#	37765
#	51710
#	64427
#	76675
#	92092
#	107812
#	118082
#	130910
#	145865
#
# Disc length: 2110 seconds
#
# Revision: 0
# Processed by: cddbd v1.5.1PL0 Copyright (c) Steve Scherf et al.
# Submitted via: CDex 1.51
#
DISCID=a4083c0c
DTITLE=越路吹雪 - 誰もいない海
DYEAR=1900
DGENRE=Japanese Pop
TTITLE0=誰もいない海
TTITLE1=コンドルは飛んでいく
TTITLE2=ある愛の詩
TTITLE3=雪が降る
TTITLE4=オー・シャンゼリゼ
TTITLE5=悲しき雨音
TTITLE6=ケ・セラ
TTITLE7=明日は月の上で
TTITLE8=太陽は燃えている
TTITLE9=嘘
TTITLE10=トライ・トゥ・リメンバー
TTITLE11=もみじの手紙
EXTD=
EXTT0=
EXTT1=
EXTT2=
EXTT3=
EXTT4=
EXTT5=
EXTT6=
EXTT7=
EXTT8=
EXTT9=
EXTT10=
EXTT11=
PLAYORDER=
